<svg width="918" height="78" viewBox="0 0 918 78" fill="none" xmlns="http://www.w3.org/2000/svg">
<path d="M1 39C1 18.0132 18.0132 1 39 1H879C899.987 1 917 18.0132 917 39C917 59.9868 899.987 77 879 77H39C18.0132 77 1 59.9868 1 39Z" fill="white"/>
<path d="M44.948 24.1H46.64V22.828H44.948V21.34H43.448V22.828H41.72V24.1H43.448V24.328C43.448 26.032 42.884 27.844 41.312 28.768L42.2 29.956C43.196 29.38 43.844 28.396 44.216 27.244C44.612 28.3 45.248 29.176 46.22 29.692L47.072 28.516C45.512 27.688 44.948 25.996 44.948 24.328V24.1ZM47.264 25.156H46.004V26.44H47.264V31.528H48.74V21.16H47.264V25.156ZM49.496 20.968V32.02H50.996V20.968H49.496ZM53.3711 25.204L53.5631 26.488L59.8751 26.164C59.8031 26.908 59.6831 27.712 59.4671 28.612L61.0271 28.768C61.5431 26.368 61.5431 24.844 61.5431 23.236V21.952H53.6831V23.212H59.9831V23.236C59.9831 23.8 59.9831 24.376 59.9591 24.988L53.3711 25.204ZM52.5671 29.428V30.724H62.5511V29.428H52.5671ZM72.7741 20.992H71.1781V28.924H72.7741V20.992ZM65.2981 24.496C65.2981 23.584 65.9461 23.056 66.7621 23.056C67.5901 23.056 68.2141 23.584 68.2141 24.496C68.2141 25.384 67.5901 25.924 66.7621 25.924C65.9461 25.924 65.2981 25.384 65.2981 24.496ZM69.7621 24.496C69.7621 22.864 68.4541 21.688 66.7621 21.688C65.0701 21.688 63.7501 22.864 63.7501 24.496C63.7501 26.104 65.0701 27.292 66.7621 27.292C68.4541 27.292 69.7621 26.104 69.7621 24.496ZM67.0021 30.58V28.144H65.4181V31.84H73.0501V30.58H67.0021Z" fill="#010101"/>
<path d="M45.176 56.208C47.16 56.208 49.016 54.752 49.016 52.176C49.016 49.6 47.432 48.448 45.48 48.448C44.776 48.448 44.264 48.624 43.736 48.912L44.024 45.52H48.456V44.256H42.744L42.376 49.76L43.16 50.24C43.832 49.792 44.328 49.552 45.112 49.552C46.584 49.552 47.544 50.544 47.544 52.224C47.544 53.936 46.424 54.992 45.048 54.992C43.688 54.992 42.84 54.368 42.168 53.696L41.448 54.656C42.232 55.44 43.352 56.208 45.176 56.208ZM58.307 49.664V50.528H61.155V51.28H62.467V42.848H61.155V49.664H58.307ZM55.315 44.032C56.723 44.032 57.619 44.512 57.619 45.28C57.619 46.016 56.723 46.512 55.315 46.512C53.923 46.512 53.011 46.016 53.011 45.28C53.011 44.512 53.923 44.032 55.315 44.032ZM55.315 47.408C57.443 47.408 58.851 46.592 58.851 45.28C58.851 43.936 57.443 43.12 55.315 43.12C53.187 43.12 51.779 43.936 51.779 45.28C51.779 46.592 53.187 47.408 55.315 47.408ZM54.579 51.328H55.891V49.12C57.283 49.04 58.707 48.928 60.099 48.736L60.019 47.872C56.947 48.224 53.443 48.24 50.675 48.24L50.835 49.232C51.987 49.232 53.251 49.216 54.579 49.184V51.328ZM54.179 56.048V54.8H62.467V51.808H52.851V52.752H61.187V53.904H52.883V57.024H62.963V56.048H54.179ZM66.0018 56H72.4338V54.784H70.0818V44.256H68.9618C68.3218 44.64 67.5698 44.912 66.5298 45.104V46.032H68.6098V54.784H66.0018V56ZM76.6368 56H78.1568C78.3328 51.408 78.8448 48.672 81.5968 45.152V44.256H74.2528V45.52H79.9328C77.6448 48.72 76.8288 51.552 76.6368 56ZM94.9678 42.832H93.6558V50.192H94.9678V42.832ZM84.7918 46.544C84.7918 45.296 85.8318 44.416 87.2238 44.416C88.6318 44.416 89.6558 45.296 89.6558 46.544C89.6558 47.776 88.6318 48.656 87.2238 48.656C85.8318 48.656 84.7918 47.776 84.7918 46.544ZM90.9358 46.544C90.9358 44.64 89.3678 43.344 87.2238 43.344C85.0798 43.344 83.5278 44.64 83.5278 46.544C83.5278 48.432 85.0798 49.712 87.2238 49.712C89.3678 49.712 90.9358 48.432 90.9358 46.544ZM86.9998 55.952V54.368H94.9678V50.896H85.6718V51.936H93.6718V53.392H85.7038V56.992H95.4478V55.952H86.9998Z" fill="#010101"/>
<path d="M180.948 24.1H182.64V22.828H180.948V21.34H179.448V22.828H177.72V24.1H179.448V24.328C179.448 26.032 178.884 27.844 177.312 28.768L178.2 29.956C179.196 29.38 179.844 28.396 180.216 27.244C180.612 28.3 181.248 29.176 182.22 29.692L183.072 28.516C181.512 27.688 180.948 25.996 180.948 24.328V24.1ZM183.264 25.156H182.004V26.44H183.264V31.528H184.74V21.16H183.264V25.156ZM185.496 20.968V32.02H186.996V20.968H185.496ZM189.371 25.204L189.563 26.488L195.875 26.164C195.803 26.908 195.683 27.712 195.467 28.612L197.027 28.768C197.543 26.368 197.543 24.844 197.543 23.236V21.952H189.683V23.212H195.983V23.236C195.983 23.8 195.983 24.376 195.959 24.988L189.371 25.204ZM188.567 29.428V30.724H198.551V29.428H188.567ZM202.558 28.204C201.73 28.204 201.178 27.328 201.178 25.684C201.178 24.052 201.73 23.176 202.558 23.176C203.374 23.176 203.938 24.052 203.938 25.684C203.938 27.328 203.374 28.204 202.558 28.204ZM202.558 21.748C200.878 21.748 199.654 23.26 199.654 25.684C199.654 28.12 200.878 29.644 202.558 29.644C204.226 29.644 205.462 28.12 205.462 25.684C205.462 23.26 204.226 21.748 202.558 21.748ZM209.854 25.144H208.246V20.98H206.662V32.032H208.246V26.452H209.854V25.144ZM215.625 22.288C217.149 22.288 218.001 22.576 218.001 23.188C218.001 23.776 217.149 24.076 215.625 24.076C214.113 24.076 213.261 23.776 213.261 23.188C213.261 22.576 214.113 22.288 215.625 22.288ZM215.625 25.264C218.073 25.264 219.633 24.496 219.633 23.188C219.633 21.88 218.073 21.088 215.625 21.088C213.177 21.088 211.629 21.88 211.629 23.188C211.629 24.496 213.177 25.264 215.625 25.264ZM216.417 28.576H214.785V28.78C214.785 29.632 213.681 30.604 211.269 30.808L211.785 31.996C213.633 31.84 214.929 31.204 215.589 30.34C216.261 31.204 217.569 31.828 219.429 31.996L219.933 30.808C217.485 30.604 216.417 29.68 216.417 28.78V28.576ZM210.633 25.84V27.1H214.809V28.144H216.393V27.1H220.629V25.84H210.633Z" fill="#010101"/>
<path d="M181.688 49.808C183.112 49.808 183.816 50.816 183.816 52.4C183.816 54 182.936 55.072 181.816 55.072C180.344 55.072 179.464 53.744 179.288 51.312C180.008 50.24 180.952 49.808 181.688 49.808ZM181.816 56.208C183.64 56.208 185.176 54.672 185.176 52.4C185.176 49.952 183.912 48.72 181.928 48.72C181 48.72 179.976 49.264 179.256 50.144C179.32 46.496 180.68 45.264 182.28 45.264C183 45.264 183.704 45.6 184.168 46.16L184.968 45.248C184.328 44.56 183.448 44.048 182.232 44.048C179.96 44.048 177.896 45.808 177.896 50.4C177.896 54.272 179.56 56.208 181.816 56.208ZM194.307 49.664V50.528H197.155V51.28H198.467V42.848H197.155V49.664H194.307ZM191.315 44.032C192.723 44.032 193.619 44.512 193.619 45.28C193.619 46.016 192.723 46.512 191.315 46.512C189.923 46.512 189.011 46.016 189.011 45.28C189.011 44.512 189.923 44.032 191.315 44.032ZM191.315 47.408C193.443 47.408 194.851 46.592 194.851 45.28C194.851 43.936 193.443 43.12 191.315 43.12C189.187 43.12 187.779 43.936 187.779 45.28C187.779 46.592 189.187 47.408 191.315 47.408ZM190.579 51.328H191.891V49.12C193.283 49.04 194.707 48.928 196.099 48.736L196.019 47.872C192.947 48.224 189.443 48.24 186.675 48.24L186.835 49.232C187.987 49.232 189.251 49.216 190.579 49.184V51.328ZM190.179 56.048V54.8H198.467V51.808H188.851V52.752H197.187V53.904H188.883V57.024H198.963V56.048H190.179ZM202.434 51.6L205.106 47.6C205.442 47.024 205.762 46.448 206.05 45.872H206.114C206.082 46.48 206.034 47.424 206.034 48V51.6H202.434ZM206.034 56H207.41V52.768H208.962V51.6H207.41V44.256H205.794L200.914 51.808V52.768H206.034V56ZM222.093 42.832H220.781V50.192H222.093V42.832ZM211.917 46.544C211.917 45.296 212.957 44.416 214.349 44.416C215.757 44.416 216.781 45.296 216.781 46.544C216.781 47.776 215.757 48.656 214.349 48.656C212.957 48.656 211.917 47.776 211.917 46.544ZM218.061 46.544C218.061 44.64 216.493 43.344 214.349 43.344C212.205 43.344 210.653 44.64 210.653 46.544C210.653 48.432 212.205 49.712 214.349 49.712C216.493 49.712 218.061 48.432 218.061 46.544ZM214.125 55.952V54.368H222.093V50.896H212.797V51.936H220.797V53.392H212.829V56.992H222.573V55.952H214.125Z" fill="#010101"/>
<path d="M325 49C330.523 49 335 44.5228 335 39C335 33.4772 330.523 29 325 29C319.477 29 315 33.4772 315 39C315 44.5228 319.477 49 325 49Z" fill="#F5F5F7"/>
<path d="M328 36L322 42" stroke="#333333" stroke-width="2" stroke-linecap="round" stroke-linejoin="round"/>
<path d="M322 36L328 42" stroke="#333333" stroke-width="2" stroke-linecap="round" stroke-linejoin="round"/>
<path d="M361 17H362V61H361V17Z" fill="#E0E0E0"/>
<path d="M390.296 27.352C390.68 27.424 391.076 27.46 391.508 27.46C391.94 27.46 392.348 27.424 392.732 27.352V29.464H390.296V27.352ZM391.508 22.768C393.044 22.768 394.076 23.392 394.076 24.496C394.076 25.588 393.044 26.224 391.508 26.224C389.972 26.224 388.952 25.588 388.952 24.496C388.952 23.392 389.972 22.768 391.508 22.768ZM394.304 29.464V26.764C395.132 26.248 395.636 25.456 395.636 24.496C395.636 22.684 393.896 21.52 391.508 21.52C389.132 21.52 387.392 22.684 387.392 24.496C387.38 25.456 387.884 26.248 388.724 26.764V29.464H386.516V30.748H396.524V29.464H394.304ZM400.291 29.104H404.791V30.664H400.291V29.104ZM398.731 31.9H406.339V27.868H398.731V31.9ZM406.135 25.456C406.387 24.184 406.387 23.248 406.387 22.36V21.472H398.791V22.732H404.827C404.827 23.5 404.791 24.352 404.563 25.456H397.555V26.716H407.563V25.456H406.135Z" fill="#010101"/>
<path d="M387.408 56H393.84V54.784H391.488V44.256H390.368C389.728 44.64 388.976 44.912 387.936 45.104V46.032H390.016V54.784H387.408V56ZM399.323 56.208C401.547 56.208 402.971 54.176 402.971 50.096C402.971 46.032 401.547 44.048 399.323 44.048C397.083 44.048 395.659 46.016 395.659 50.096C395.659 54.176 397.083 56.208 399.323 56.208ZM399.323 55.04C397.979 55.04 397.083 53.552 397.083 50.096C397.083 46.672 397.979 45.216 399.323 45.216C400.651 45.216 401.547 46.672 401.547 50.096C401.547 53.552 400.651 55.04 399.323 55.04ZM408.198 56.208C410.422 56.208 411.846 54.176 411.846 50.096C411.846 46.032 410.422 44.048 408.198 44.048C405.958 44.048 404.534 46.016 404.534 50.096C404.534 54.176 405.958 56.208 408.198 56.208ZM408.198 55.04C406.854 55.04 405.958 53.552 405.958 50.096C405.958 46.672 406.854 45.216 408.198 45.216C409.526 45.216 410.422 46.672 410.422 50.096C410.422 53.552 409.526 55.04 408.198 55.04ZM413.825 59.04C415.265 58.432 416.161 57.232 416.161 55.696C416.161 54.624 415.697 53.968 414.929 53.968C414.337 53.968 413.825 54.368 413.825 54.992C413.825 55.664 414.337 56.016 414.897 56.016C414.961 56.016 415.009 56.016 415.073 56C415.073 56.944 414.481 57.728 413.473 58.176L413.825 59.04ZM421.526 56.208C423.75 56.208 425.174 54.176 425.174 50.096C425.174 46.032 423.75 44.048 421.526 44.048C419.286 44.048 417.862 46.016 417.862 50.096C417.862 54.176 419.286 56.208 421.526 56.208ZM421.526 55.04C420.182 55.04 419.286 53.552 419.286 50.096C419.286 46.672 420.182 45.216 421.526 45.216C422.854 45.216 423.75 46.672 423.75 50.096C423.75 53.552 422.854 55.04 421.526 55.04ZM430.401 56.208C432.625 56.208 434.049 54.176 434.049 50.096C434.049 46.032 432.625 44.048 430.401 44.048C428.161 44.048 426.737 46.016 426.737 50.096C426.737 54.176 428.161 56.208 430.401 56.208ZM430.401 55.04C429.057 55.04 428.161 53.552 428.161 50.096C428.161 46.672 429.057 45.216 430.401 45.216C431.729 45.216 432.625 46.672 432.625 50.096C432.625 53.552 431.729 55.04 430.401 55.04ZM439.276 56.208C441.5 56.208 442.924 54.176 442.924 50.096C442.924 46.032 441.5 44.048 439.276 44.048C437.036 44.048 435.612 46.016 435.612 50.096C435.612 54.176 437.036 56.208 439.276 56.208ZM439.276 55.04C437.932 55.04 437.036 53.552 437.036 50.096C437.036 46.672 437.932 45.216 439.276 45.216C440.604 45.216 441.5 46.672 441.5 50.096C441.5 53.552 440.604 55.04 439.276 55.04ZM449.719 51.408C450.487 51.408 451.287 50.928 451.943 49.808L451.111 49.216C450.711 49.984 450.263 50.304 449.751 50.304C448.743 50.304 447.991 48.8 446.583 48.8C445.799 48.8 444.999 49.28 444.343 50.4L445.159 50.976C445.575 50.208 446.023 49.888 446.535 49.888C447.543 49.888 448.311 51.408 449.719 51.408ZM453.986 56H460.418V54.784H458.066V44.256H456.946C456.306 44.64 455.554 44.912 454.514 45.104V46.032H456.594V54.784H453.986V56ZM462.653 59.04C464.093 58.432 464.989 57.232 464.989 55.696C464.989 54.624 464.525 53.968 463.757 53.968C463.165 53.968 462.653 54.368 462.653 54.992C462.653 55.664 463.165 56.016 463.725 56.016C463.789 56.016 463.837 56.016 463.901 56C463.901 56.944 463.309 57.728 462.301 58.176L462.653 59.04ZM470.354 56.208C472.578 56.208 474.002 54.176 474.002 50.096C474.002 46.032 472.578 44.048 470.354 44.048C468.114 44.048 466.69 46.016 466.69 50.096C466.69 54.176 468.114 56.208 470.354 56.208ZM470.354 55.04C469.01 55.04 468.114 53.552 468.114 50.096C468.114 46.672 469.01 45.216 470.354 45.216C471.682 45.216 472.578 46.672 472.578 50.096C472.578 53.552 471.682 55.04 470.354 55.04ZM479.229 56.208C481.453 56.208 482.877 54.176 482.877 50.096C482.877 46.032 481.453 44.048 479.229 44.048C476.989 44.048 475.565 46.016 475.565 50.096C475.565 54.176 476.989 56.208 479.229 56.208ZM479.229 55.04C477.885 55.04 476.989 53.552 476.989 50.096C476.989 46.672 477.885 45.216 479.229 45.216C480.557 45.216 481.453 46.672 481.453 50.096C481.453 53.552 480.557 55.04 479.229 55.04ZM488.104 56.208C490.328 56.208 491.752 54.176 491.752 50.096C491.752 46.032 490.328 44.048 488.104 44.048C485.864 44.048 484.44 46.016 484.44 50.096C484.44 54.176 485.864 56.208 488.104 56.208ZM488.104 55.04C486.76 55.04 485.864 53.552 485.864 50.096C485.864 46.672 486.76 45.216 488.104 45.216C489.432 45.216 490.328 46.672 490.328 50.096C490.328 53.552 489.432 55.04 488.104 55.04ZM493.731 59.04C495.171 58.432 496.067 57.232 496.067 55.696C496.067 54.624 495.603 53.968 494.835 53.968C494.243 53.968 493.731 54.368 493.731 54.992C493.731 55.664 494.243 56.016 494.803 56.016C494.867 56.016 494.915 56.016 494.979 56C494.979 56.944 494.387 57.728 493.379 58.176L493.731 59.04ZM501.432 56.208C503.656 56.208 505.08 54.176 505.08 50.096C505.08 46.032 503.656 44.048 501.432 44.048C499.192 44.048 497.768 46.016 497.768 50.096C497.768 54.176 499.192 56.208 501.432 56.208ZM501.432 55.04C500.088 55.04 499.192 53.552 499.192 50.096C499.192 46.672 500.088 45.216 501.432 45.216C502.76 45.216 503.656 46.672 503.656 50.096C503.656 53.552 502.76 55.04 501.432 55.04ZM510.307 56.208C512.531 56.208 513.955 54.176 513.955 50.096C513.955 46.032 512.531 44.048 510.307 44.048C508.067 44.048 506.643 46.016 506.643 50.096C506.643 54.176 508.067 56.208 510.307 56.208ZM510.307 55.04C508.963 55.04 508.067 53.552 508.067 50.096C508.067 46.672 508.963 45.216 510.307 45.216C511.635 45.216 512.531 46.672 512.531 50.096C512.531 53.552 511.635 55.04 510.307 55.04ZM519.182 56.208C521.406 56.208 522.83 54.176 522.83 50.096C522.83 46.032 521.406 44.048 519.182 44.048C516.942 44.048 515.518 46.016 515.518 50.096C515.518 54.176 516.942 56.208 519.182 56.208ZM519.182 55.04C517.838 55.04 516.942 53.552 516.942 50.096C516.942 46.672 517.838 45.216 519.182 45.216C520.51 45.216 521.406 46.672 521.406 50.096C521.406 53.552 520.51 55.04 519.182 55.04Z" fill="#010101"/>
<path d="M582 49C587.523 49 592 44.5228 592 39C592 33.4772 587.523 29 582 29C576.477 29 572 33.4772 572 39C572 44.5228 576.477 49 582 49Z" fill="#F5F5F7"/>
<path d="M585 36L579 42" stroke="#333333" stroke-width="2" stroke-linecap="round" stroke-linejoin="round"/>
<path d="M579 36L585 42" stroke="#333333" stroke-width="2" stroke-linecap="round" stroke-linejoin="round"/>
<path d="M618 17H619V61H618V17Z" fill="#E0E0E0"/>
<path d="M652.696 20.992H651.1V28.924H652.696V20.992ZM645.22 24.496C645.22 23.584 645.868 23.056 646.684 23.056C647.512 23.056 648.136 23.584 648.136 24.496C648.136 25.384 647.512 25.924 646.684 25.924C645.868 25.924 645.22 25.384 645.22 24.496ZM649.684 24.496C649.684 22.864 648.376 21.688 646.684 21.688C644.992 21.688 643.672 22.864 643.672 24.496C643.672 26.104 644.992 27.292 646.684 27.292C648.376 27.292 649.684 26.104 649.684 24.496ZM646.924 30.58V28.144H645.34V31.84H652.972V30.58H646.924ZM660.195 27.4V28.48H662.271V29.356H663.855V20.98H662.271V27.4H660.195ZM658.071 22.504C658.803 22.504 659.319 22.792 659.319 23.332C659.319 23.872 658.803 24.148 658.071 24.148C657.327 24.148 656.811 23.872 656.811 23.332C656.811 22.792 657.327 22.504 658.071 22.504ZM658.071 25.3C659.679 25.3 660.819 24.508 660.819 23.332C660.819 22.156 659.679 21.352 658.071 21.352C656.451 21.352 655.323 22.156 655.323 23.332C655.323 24.508 656.451 25.3 658.071 25.3ZM657.483 30.58V29.068H659.007V26.98C659.895 26.908 660.783 26.812 661.647 26.668L661.539 25.54C659.211 25.84 656.523 25.864 654.507 25.876L654.711 27.136C655.539 27.136 656.463 27.124 657.435 27.076V28.552H655.899V31.84H664.095V30.58H657.483Z" fill="#010101"/>
<path d="M651.8 48.704H649.32C649.8 47.424 650.008 46.064 650.008 44.656H644.472V45.728H648.712C648.472 48.736 646.936 51.312 643.864 53.152L644.632 54.096C646.616 52.912 647.992 51.424 648.856 49.76H651.8V56.464H653.048V43.216H651.8V48.704ZM654.792 42.832V57.184H656.04V42.832H654.792ZM670.935 50.048C668.423 49.568 665.703 47.392 665.703 44.944V43.84H664.327V44.944C664.327 47.392 661.623 49.552 659.111 50.048L659.703 51.136C661.863 50.624 664.103 49.088 665.015 46.992C665.927 49.104 668.167 50.64 670.343 51.136L670.935 50.048ZM658.567 54.176V55.264H671.575V54.176H658.567ZM684.806 50.576H676.278V48.304H684.342V47.264H676.278V45.136H684.662V44.08H674.95V51.632H684.806V50.576ZM673.27 54.256V55.328H686.294V54.256H673.27ZM694.958 56.208C697.038 56.208 698.718 54.96 698.718 52.864C698.718 51.264 697.614 50.208 696.238 49.888V49.824C697.47 49.36 698.318 48.416 698.318 46.992C698.318 45.136 696.878 44.048 694.91 44.048C693.55 44.048 692.51 44.64 691.63 45.456L692.414 46.384C693.07 45.712 693.902 45.248 694.846 45.248C696.062 45.248 696.83 45.984 696.83 47.104C696.83 48.368 695.998 49.344 693.582 49.344V50.464C696.286 50.464 697.23 51.408 697.23 52.8C697.23 54.16 696.238 54.992 694.846 54.992C693.518 54.992 692.622 54.368 691.934 53.648L691.198 54.608C691.966 55.44 693.118 56.208 694.958 56.208ZM706.377 49.248H702.409V44.976H706.377V49.248ZM710.953 46.224V48H707.657V46.224H710.953ZM707.657 49.056H710.953V51.328H712.281V42.848H710.953V45.168H707.657V43.92H701.113V50.288H707.657V49.056ZM707.529 56.144C705.385 56.144 704.073 55.52 704.073 54.464C704.073 53.408 705.385 52.784 707.529 52.784C709.705 52.784 711.017 53.408 711.017 54.464C711.017 55.52 709.705 56.144 707.529 56.144ZM707.529 51.76C704.585 51.76 702.761 52.736 702.761 54.464C702.761 56.176 704.585 57.168 707.529 57.168C710.489 57.168 712.329 56.176 712.329 54.464C712.329 52.736 710.489 51.76 707.529 51.76ZM720.13 56.208C720.706 56.208 721.186 55.76 721.186 55.104C721.186 54.432 720.706 53.968 720.13 53.968C719.554 53.968 719.074 54.432 719.074 55.104C719.074 55.76 719.554 56.208 720.13 56.208ZM724.583 56.208C725.159 56.208 725.639 55.76 725.639 55.104C725.639 54.432 725.159 53.968 724.583 53.968C724.007 53.968 723.527 54.432 723.527 55.104C723.527 55.76 724.007 56.208 724.583 56.208ZM729.037 56.208C729.613 56.208 730.093 55.76 730.093 55.104C730.093 54.432 729.613 53.968 729.037 53.968C728.461 53.968 727.981 54.432 727.981 55.104C727.981 55.76 728.461 56.208 729.037 56.208Z" fill="#010101"/>
<path d="M775 49C780.523 49 785 44.5228 785 39C785 33.4772 780.523 29 775 29C769.477 29 765 33.4772 765 39C765 44.5228 769.477 49 775 49Z" fill="#F5F5F7"/>
<path d="M778 36L772 42" stroke="#333333" stroke-width="2" stroke-linecap="round" stroke-linejoin="round"/>
<path d="M772 36L778 42" stroke="#333333" stroke-width="2" stroke-linecap="round" stroke-linejoin="round"/>
<rect x="811" y="18" width="90" height="42" rx="21" fill="#E84C60"/>
<path d="M830 46C834.418 46 838 42.4183 838 38C838 33.5817 834.418 30 830 30C825.582 30 822 33.5817 822 38C822 42.4183 825.582 46 830 46Z" stroke="white" stroke-width="2" stroke-linecap="round" stroke-linejoin="round"/>
<path d="M840 48L835.65 43.65" stroke="white" stroke-width="2" stroke-linecap="round" stroke-linejoin="round"/>
<path d="M852.746 32.924V34.814H857.786C857.408 37.01 855.41 38.81 851.846 39.782L852.782 41.618C857.606 40.286 860.306 37.298 860.306 32.924H852.746ZM857.066 43.778H863.294V46.496H857.066V43.778ZM854.726 48.35H865.634V41.906H854.726V48.35ZM863.258 31.988V35.894H860.396V37.82H863.258V41.222H865.634V31.988H863.258ZM876.685 39.386C874.489 38.468 873.607 36.65 873.607 34.814V32.888H871.321V34.814C871.321 36.704 870.421 38.756 868.099 39.782L869.359 41.636C870.889 40.97 871.897 39.8 872.509 38.396C873.085 39.62 874.039 40.61 875.425 41.186L876.685 39.386ZM871.051 44.642H880.087V48.566H882.463V42.77H871.051V44.642ZM880.213 31.97V36.002H878.917V32.222H876.703V41.942H878.917V37.91H880.213V42.032H882.463V31.97H880.213Z" fill="white"/>
<path d="M39 2H879V0H39V2ZM879 76H39V78H879V76ZM39 76C18.5655 76 2 59.4345 2 39H0C0 60.5391 17.4609 78 39 78V76ZM916 39C916 59.4345 899.435 76 879 76V78C900.539 78 918 60.5391 918 39H916ZM879 2C899.435 2 916 18.5655 916 39H918C918 17.4609 900.539 0 879 0V2ZM39 0C17.4609 0 0 17.4609 0 39H2C2 18.5655 18.5655 2 39 2V0Z" fill="#BDBDBD"/>
</svg>
